# xmcd CD database file
#
# Track frame offsets:
#	150
#	24058
#	45476
#	65840
#	84556
#	108161
#	130527
#	152938
#	175581
#	198449
#	219621
#	239153
#
# Disc length: 3470 seconds
#
# Revision: 0
# Processed by: cddbd v1.5.1PL0 Copyright (c) Steve Scherf et al.
# Submitted via: CDex 1.51
#
DISCID=9d0d8c0c
DTITLE=Nessun Artista - Senza Titolo
DYEAR=2005
DGENRE=Lounge
TTITLE0=Latin Vibe - Light Breeze
TTITLE1=Time Passing - Dombossa
TTITLE2=Pmc Project - Monolith
TTITLE3=Chester Maupao - Mescal
TTITLE4=Mentafreska - El Solea
TTITLE5=Donati - Nao Diga Nao
TTITLE6=Redy Sound - Latin
TTITLE7=E The Hot - Desktop Rally
TTITLE8=Funkadiba - And The Funk Goes On
TTITLE9=Cafè Delux - Vinyl
TTITLE10=Cool Water - Magic
TTITLE11=Mystic Diversions - Water
EXTD=YEAR: 2005
EXTT0=
EXTT1=
EXTT2=
EXTT3=
EXTT4=
EXTT5=
EXTT6=
EXTT7=
EXTT8=
EXTT9=
EXTT10=
EXTT11=
PLAYORDER=
